Coordinates
version=1
nRows=21
nColumns=12
inDegrees=yes

Units are S.I. units (second, meters, Newtons, ...)
Angles are in degrees

endheader
time	SC_y	SC_z	SC_x	AC_y	AC_z	AC_x	GH_y	GH_z	GH_yy	EL_x	PS_y
       0.0              -14.96          27.73          76.86          65.64         -17.09         -1.739          78.52         -12.05         -86.05          98.46          136.7
    0.0432              -14.96          27.73          76.86          65.64         -17.09         -1.738          78.52         -12.03         -86.05          98.45          136.7
    0.0864              -14.96          27.72          76.86          65.64         -17.09         -1.738          78.52         -12.02         -86.05          98.44          136.7
    0.1296              -14.97          27.72          76.85          65.63         -17.09         -1.738          78.52         -12.01         -86.05          98.42          136.7
    0.1728              -14.97          27.71          76.85          65.63         -17.08         -1.737          78.52         -11.99         -86.05          98.41          136.7
     0.216              -14.98          27.71          76.85          65.62         -17.08         -1.737          78.53         -11.97         -86.05          98.39          136.7
    0.2592              -14.98           27.7          76.84          65.62         -17.08         -1.736          78.53         -11.96         -86.05          98.38          136.7
    0.3024              -14.99           27.7          76.84          65.61         -17.07         -1.736          78.53         -11.94         -86.05          98.36          136.6
    0.3456               -15.0          27.69          76.83           65.6         -17.07         -1.735          78.53         -11.92         -86.05          98.35          136.6
    0.3888               -15.0          27.69          76.83           65.6         -17.06         -1.735          78.54          -11.9         -86.05          98.33          136.6
     0.432              -15.01          27.68          76.83          65.59         -17.06         -1.734          78.54         -11.87         -86.04          98.31          136.6
    0.4752              -15.02          27.67          76.82          65.58         -17.06         -1.733          78.54         -11.85         -86.04          98.28          136.6
    0.5184              -15.03          27.66          76.81          65.57         -17.05         -1.733          78.55         -11.82         -86.04          98.26          136.6
    0.5616              -15.04          27.66          76.81          65.56         -17.04         -1.732          78.55         -11.79         -86.04          98.23          136.6
    0.6048              -15.05          27.65           76.8          65.55         -17.04         -1.731          78.55         -11.76         -86.04          98.21          136.6
     0.648              -15.06          27.64          76.79          65.54         -17.03          -1.73          78.56         -11.73         -86.04          98.18          136.6
    0.6912              -15.07          27.63          76.79          65.53         -17.03         -1.729          78.56         -11.69         -86.04          98.14          136.5
    0.7344              -15.08          27.61          76.78          65.52         -17.02         -1.728          78.57         -11.65         -86.04          98.11          136.5
    0.7776               -15.1           27.6          76.77           65.5         -17.01         -1.727          78.58          -11.6         -86.04          98.07          136.5
    0.8208              -15.11          27.59          76.76          65.49          -17.0         -1.726          78.58         -11.56         -86.04          98.03          136.5
     0.864              -15.13          27.57          76.75          65.47         -16.99         -1.724          78.59          -11.5         -86.04          97.98          136.5
